<svg width="318" height="312" viewBox="0 0 318 312" fill="none" xmlns="http://www.w3.org/2000/svg">
<path d="M318 153C318 240.813 246.813 312 159 312C71.1867 312 0 240.813 0 153C0 65.1867 71.1867 0 159 0C246.813 0 318 65.1867 318 153Z" fill="#E3E3E3"/>
<path d="M288.975 137.112C293.927 208.29 231.819 255 161.314 255C90.8095 255 27.6012 211.07 33.654 137.112C33.654 74.8318 90.8095 17 161.314 17C231.819 17 288.975 74.2757 288.975 137.112Z" fill="black" fill-opacity="0.41"/>
<path d="M276 141C280.5 205 224.065 247 160 247C95.9349 247 38.5 207.5 44 141C44 85 95.9349 33 160 33C224.065 33 276 84.5 276 141Z" fill="#161616"/>
</svg>
